<?xml version="1.0" encoding="utf-8"?>
<!-- Generator: Adobe Illustrator 25.2.3, SVG Export Plug-In . SVG Version: 6.00 Build 0)  -->
<svg version="1.1" id="Layer_1" xmlns="http://www.w3.org/2000/svg" xmlns:xlink="http://www.w3.org/1999/xlink" x="0px" y="0px"
	 viewBox="0 0 850.8 191.4" style="enable-background:new 0 0 850.8 191.4;" xml:space="preserve">
<style type="text/css">
	.st0{stroke:#000000;stroke-miterlimit:10;}
	.st1{fill:none;}
	.st2{fill:none;stroke:#000000;stroke-miterlimit:10;}
</style>
<g id="uYpHq3.tif">
	<g>
		<g>
			<path d="M19.9,141.4c0-30.1,0-59.9,0-90c0-0.2,0.2-0.5,0.2-1c0.7-3.8,2.6-7.2,5.7-9.8c3.6-3.3,8.1-4.5,12.9-4.5
				c25.1,0,50.4,0,75.4,0c11.7,0,23.6,0,35.3,0c11.7-0.2,18.6,9.3,18.6,18.6c-0.2,27.9,0,56.1,0,84c0,8.1-5.7,15.3-13.8,17
				c-2.1,0.5-4.3,0.5-6.4,0.5c-36.5,0-72.8,0-109.4,0c-7.2,0-12.9-2.9-16.7-9.1C21.3,145.5,20.6,143.4,19.9,141.4z M94.1,43.3
				c-18.4,0-36.8,0-55.4,0c-6.4,0-11.9,4.3-11.9,11.7c0.2,27.7,0,55.2,0,82.8c0,1.2,0,2.4,0.2,3.6c1.2,5,5.5,7.9,11,7.9
				c37,0,74.3,0,111.3,0c7.2,0,11.5-4.3,11.5-11.5c0-27.7,0-55.2,0-82.8c0-1.2,0-2.4-0.2-3.6c-1.2-5-5.5-8.1-10.7-8.1
				C131.4,43.3,112.8,43.3,94.1,43.3z"/>
			<path d="M75.3,96.3c-0.7-0.5-1.4-1-1.7-1.4C65.7,87,57.9,79.1,50,71.2c-0.7-1-1.7-2.1-1.7-3.3c0-1,1-2.4,1.9-3.1
				c1-1,2.4-0.7,3.6,0.2c0.5,0.2,1,0.7,1.2,1.2c8.8,8.8,17.9,17.9,26.7,26.7c2.4,2.4,2.4,4.1,0,6.4c-9.1,9.1-18.1,18.1-27.2,27.2
				c-1.2,1.2-2.4,1.7-3.8,1.2s-2.4-1.4-2.6-2.9c-0.2-1.4,0.7-2.6,1.7-3.6c7.9-7.9,15.8-15.8,23.6-23.6C74.1,97.5,74.6,97,75.3,96.3z
				"/>
			<path d="M115.2,128.3c-6.9,0-13.6,0-20.5,0c-2.4,0-4.1-1.4-4.1-3.6c0-2.1,1.7-3.6,4.1-3.6c13.8,0,27.7,0,41.5,0
				c2.4,0,4.1,1.7,4.1,3.6c0,2.1-1.7,3.3-4.1,3.3C129.2,128.3,122.3,128.3,115.2,128.3z"/>
		</g>
	</g>
</g>
<g id="JtpthD.tif">
	<g>
		<path class="st0" d="M831,62.2c-25.8,0-51.3,0-77.1,0c-33.7,0-67.3,0-101,0c-1,0-1.9-0.2-2.6-0.2c0-0.2-0.2-0.7-0.2-1
			c1-0.2,1.9-0.7,2.9-0.7c11.9,0,23.9,0,35.6,0c39.2,0,78.6,0,117.7,0c8.4,0,16.5,0,24.8,0C831,60.7,831,61.5,831,62.2z"/>
		<path class="st0" d="M831,131.7c-24.8,0-49.4,0-74.3,0c-34.6,0-69,0-103.6,0c-1,0-2.1,0-3.1-0.2c0-0.2-0.2-0.7-0.2-1
			c1-0.2,1.9-0.7,2.9-0.7c6,0,11.9,0,17.9,0c52.5,0,105.1,0,157.6,0c0.7,0,1.7,0,2.4,0C831,130.2,831,130.9,831,131.7z"/>
		<path class="st0" d="M826.2,56.4c-4.5-8.4-8.8-16.7-13.4-24.8c-2.1-3.8-2.9-3.8-5.3-0.5c-3.3,4.5-6.2,4.3-8.6-1
			c-2.1-5.3-4.3-10.5-6.2-15.8c-1-2.6-2.4-4.3-5.3-4.5c-2.9,0-4.3,1.9-5.5,4.3c-1.7,4.3-3.3,8.6-5.5,12.7c-0.7,1.4-2.6,3.3-4.3,3.3
			c-1.2,0-2.9-1.9-4.1-3.3c-1-1.4-1.2-3.6-2.1-5.3c-0.7-1.4-1.9-2.6-3.1-4.1c-1,1.2-2.1,2.4-2.9,3.6c-0.7,1-1,2.1-1.4,3.3
			c-1,2.4-1.9,5.3-5,5c-3.1,0-3.8-2.9-4.8-5c-1-2.4-1.9-4.5-2.9-6.9c-0.5-0.7-1.4-1.9-1.9-1.9c-0.7,0.2-1.9,1-2.1,1.9
			c-2.6,5.7-5,11.7-7.6,17.4c-1,1.7-2.9,4.1-4.3,4.1c-1.4,0-3.6-2.1-4.5-4.1c-2.1-4.1-3.8-8.6-6.2-12.7c-1-1.7-3.6-3.3-5.3-3.1
			c-1.9,0.2-4.1,2.4-5,4.1c-2.6,5-4.5,10.3-6.9,15.5c-2.1,4.5-5.5,4.8-8.1,0.5c-1.9-2.9-2.9-2.9-4.5,0.2c-3.1,5.5-6,5.7-9.3,0.2
			c-1.2-1.9-2.1-4.3-3.6-6c-1.4-1.7-3.6-3.6-5.5-3.6c-1.7,0-4.1,1.9-5,3.6c-4.5,7.4-8.8,15.3-13.4,22.9c-0.5,0-0.7,0-1.2,0
			c0-1-0.2-2.1,0-2.6c4.3-7.4,8.6-15,13.1-22.2c3.3-5.5,9.3-5.5,13.1,0c1.9,2.6,3.1,5.5,5,8.1c1.7,2.6,2.9,2.4,4.3-0.2
			c0.2-0.5,0.5-1,0.7-1.7c2.6-4.5,5-4.5,7.9-0.2c2.1,3.1,3.1,3.1,4.8-0.2c2.1-4.5,4.1-9.3,6-14.1c1.9-4.5,4.5-6.9,8.1-6.9
			c4.3,0.2,6.4,3.1,7.9,6.7c1.9,4.1,3.6,8.1,5.7,12.2c0.2,0.7,1.7,1.7,1.9,1.4c0.7-0.2,1.7-1.2,1.9-2.1c2.9-6.4,5.5-12.9,8.4-19.1
			c0.7-1.4,2.4-2.9,3.8-2.9c1.2,0,2.9,1.4,3.3,2.6c1.7,3.1,2.6,6.2,4.1,9.3c0.5,1,1.4,1.9,2.1,1.9s1.7-1,2.1-1.9
			c1.2-2.4,1.9-4.8,3.3-6.9c1-1.2,2.6-2.9,3.8-2.9s3.1,1.7,3.8,2.9c1.4,2.4,2.1,5,3.1,7.4c0.5,1,1.4,1.9,2.1,1.9s1.7-1.2,2.1-1.9
			c1.9-4.1,3.6-8.1,5.3-12.4c1.7-4.1,4.3-6.2,7.9-6.2c3.6,0,6,2.4,7.4,6.4c1.9,5,3.8,10,6,15c1.4,3.3,2.4,3.3,4.5,0.5
			c3.6-4.8,6.2-4.8,9.1,0.7c4.3,7.6,8.4,15.3,12.4,22.9c0.5,0.7,0.2,1.9,0.2,2.9C827.1,56.4,826.7,56.4,826.2,56.4z"/>
		<path class="st0" d="M747.9,109.9c1.9-3.3,3.6-6,5.3-8.6c1.9-3.1,3.8-2.9,5.7,0c0.7,1.2,1.7,2.6,2.6,4.1c0.7-1,1.4-1.4,1.9-2.1
			c2.9-4.3,4.1-4.3,6.9,0.2c1,1.4,1.7,2.9,2.6,4.3c0.7,1.2,1.7,2.6,2.9,4.5c1.7-3.1,2.9-6,4.3-8.6c1.4-2.9,2.9-5.3,6.4-5
			c3.6,0,5.3,2.6,6.7,5.5c1.2,2.6,2.1,5,3.6,8.4c1.9-3.1,3.3-5.7,5-8.1c2.4-3.6,4.3-3.3,6.2,0.5c1,2.1,1.9,4.5,3.3,7.4
			c1.2-1.9,1.9-3.3,2.9-4.5c1.4-2.1,3.3-2.4,4.5,0c2.9,5.5,5.5,11,8.4,16.2c-0.2,0.2-0.5,0.7-0.7,1c-0.7-0.5-1.7-1-2.1-1.7
			c-1.9-3.6-3.8-7.4-5.7-11c-0.5-1-1.2-1.9-1.9-3.3c-1,1.4-1.9,2.4-2.6,3.6c-1.9,2.4-3.8,2.1-5.3-0.5c-1.4-2.4-2.4-5-3.8-8.4
			c-1.9,2.9-3.3,5.5-5,7.9c-2.4,3.3-4.3,3.3-6.2-0.5c-1.2-2.6-2.1-5.3-3.6-7.6c-1.9-3.6-5.7-3.6-7.6,0c-1.4,2.6-2.6,5.5-4.1,8.1
			c-1.7,3.3-3.8,3.3-5.7,0.2c-1.9-3.1-3.8-6.2-6-9.8c-1.4,1.9-2.4,3.3-3.6,5c-1.2,1.7-2.4,1.7-3.6,0c-1.2-1.9-2.4-3.6-4.1-6.2
			c-1.4,2.6-2.6,5-4.1,6.9c-1,1.4-2.6,2.6-4.1,4.1c-1.2-1.2-2.6-2.4-3.6-3.8c-2.4-3.8-4.3-8.1-6.7-11.9c-2.1-3.6-6-2.9-7.9,1
			c-2.6,4.8-5,9.6-7.9,14.3c-2.9,5-4.5,5-7.4-0.2c-1.2-2.1-2.1-4.3-3.6-6.9c-1.7,2.9-2.9,5.3-4.3,7.6c-2.4,4.3-4.3,4.3-6.7-0.2
			c-2.6-4.8-4.8-10-7.6-14.8c-1.2-1.9-3.1-4.3-4.8-4.3c-1.7,0-3.8,2.4-4.8,4.3c-2.9,4.8-5.3,10-8.1,14.8c-1.9,3.1-3.8,3.1-5.7,0.2
			c-0.7-1.2-1.4-2.4-2.1-3.6c-0.7-1.2-1.2-2.4-2.1-4.3c-2.6,5.3-5,9.8-7.4,14.3c-1,1.9-1.9,3.8-2.9,5.7c-0.2,0.5-1.2,0.5-1.9,0.7
			c0-0.7-0.2-1.4,0-1.9c3.1-6.2,6.2-12.4,9.6-18.6c1.4-2.9,3.6-2.9,5.3-0.2c1.7,2.4,2.9,5,4.8,8.4c2.9-5.3,5.5-10,7.9-14.6
			c0.7-1.4,1.4-2.9,2.4-4.3c3.1-4.5,8.4-4.5,11.2,0.2c2.6,4.8,5,9.6,7.6,14.3c0.7,1.4,1.7,2.9,2.6,4.8c1.7-3.1,2.9-5.7,4.3-8.4
			c1.9-3.3,4.1-3.3,6,0c1.4,2.6,2.6,5.3,4.3,8.6c3.1-5.5,6-10,8.6-14.8c0.2-0.7,0.5-1.2,1-1.9c1.4-2.6,3.1-4.8,6.4-4.8
			c3.6,0,5.3,2.4,6.7,5C742.8,100.9,745.2,105.2,747.9,109.9z"/>
		<path class="st0" d="M749.1,174.9c0,2.6,0,5.3,0,7.9c0,2.1-0.5,3.1-2.9,2.9c-4.8-0.2-9.6,0-14.6,0c-1.9,0-3.1-0.5-3.1-2.9
			c0-5.5,0-11,0-16.2c0-1.9,0.7-2.9,2.6-2.6c5,0,9.8,0,14.8,0c2.1,0,2.9,1,2.9,2.9C749.1,169.4,749.1,172,749.1,174.9z M731.4,174.4
			c0,0.7,0,1.4,0,2.1c0.2,7.2-1,6.4,6.4,6.4c9.1,0,9.1,0,9.1-9.3c0-8.4,1.2-7.4-7.2-7.4C731.4,166.3,731.4,166.3,731.4,174.4z"/>
		<path class="st0" d="M711.8,174.6c0,2.9,0.2,5.7,0,8.6c0,1-1.4,2.4-2.4,2.4c-5,0.2-10,0.2-15.3,0c-1,0-2.4-1.4-2.4-2.4
			c-0.2-5.7-0.2-11.2,0-17c0-0.7,1.4-2.1,2.1-2.1c5.3-0.2,10.3-0.2,15.5,0c1,0,2.1,1.4,2.4,2.4C712,169.1,711.8,171.8,711.8,174.6z
			 M693.9,183c5.3,0,10.3,0,15.3,0c0-5.7,0-11,0-16.7c-5.3,0-10.3,0-15.3,0C693.9,172,693.9,177.3,693.9,183z"/>
		<path class="st0" d="M823.8,174.4c0,2.6,0,5.5,0,8.1c0,2.1-0.7,2.9-2.9,2.9c-5,0-9.8,0-14.8,0c-1.9,0-2.6-0.7-2.6-2.6
			c0-5.5,0-11,0-16.7c0-1.7,0.5-2.6,2.4-2.6c5,0,10,0,15,0c2.1,0,2.9,1,2.9,3.1C823.8,169.4,823.8,172,823.8,174.4z M821.4,183.2
			c0-5.5,0-10.3,0-15.3c0-0.7-1.4-1.9-2.1-1.9c-3.6-0.2-7.4-0.2-11,0c-1,0-2.4,1.4-2.4,2.4c-0.2,4.3-0.2,8.6,0,12.7
			c0,0.7,1.2,1.9,1.7,1.9C811.9,183.2,816.6,183.2,821.4,183.2z"/>
		<path class="st0" d="M654.3,174.4c0-1.9,0.2-4.1,0-6c-0.5-3.3,0.5-5,4.3-4.5c4.3,0.5,8.4,0.2,12.7,0c2.4,0,3.3,0.5,3.3,3.1
			c-0.2,5.3,0,10.5,0,16c0,1.9-0.5,2.9-2.6,2.9c-5,0-10,0-15,0c-2.1,0-2.6-1-2.6-2.9C654.3,179.9,654.3,177,654.3,174.4z M671.9,166
			c-4.8,0-8.8-0.2-13.1,0c-1,0-2.4,1.4-2.4,2.4c-0.2,4.1-0.2,8.4,0,12.4c0,0.7,1.2,2.4,1.7,2.4c4.5,0.2,9.1,0,13.8,0
			C671.9,177.3,671.9,171.8,671.9,166z"/>
		<path class="st0" d="M786.3,174.9c0,2.6,0,5.3,0,7.9c0,1.9-0.5,2.9-2.6,2.9c-5,0-10,0-15.3-0.2c-1,0-2.4-1.4-2.4-2.4
			c-0.2-5.7,0-11.2-0.2-17c0-1.9,1-2.4,2.6-2.4c5,0,10,0,15.3,0c1.9,0,2.6,0.7,2.6,2.9C786.3,169.4,786.5,172.2,786.3,174.9
			C786.5,174.9,786.5,174.9,786.3,174.9z M768.4,166c0,5.3,0,10.3,0,15.3c0,0.7,1,1.9,1.4,1.9c4.8,0.2,9.6,0,14.3,0
			c0-5.5,0-10,0-14.8c0-0.7-1.2-2.4-1.7-2.4C777.9,165.8,773.4,166,768.4,166z"/>
	</g>
</g>
<g>
	<g>
		<line class="st1" x1="187.3" y1="98" x2="233.8" y2="98"/>
		<g>
			<line class="st2" x1="187.3" y1="98" x2="216.6" y2="98"/>
			<g>
				<polygon points="213.3,109.9 233.8,98 213.3,86.1 				"/>
			</g>
		</g>
	</g>
	<g>
		<line class="st1" x1="222.4" y1="98" x2="268.9" y2="98"/>
		<g>
			<line class="st2" x1="222.4" y1="98" x2="251.7" y2="98"/>
			<g>
				<polygon points="248.1,109.9 268.9,98 248.1,86.1 				"/>
			</g>
		</g>
	</g>
	<g>
		<line class="st1" x1="257.5" y1="98" x2="304" y2="98"/>
		<g>
			<line class="st2" x1="257.5" y1="98" x2="286.8" y2="98"/>
			<g>
				<polygon points="283.5,109.9 304,98 283.5,86.1 				"/>
			</g>
		</g>
	</g>
</g>
<g>
	<g>
		<line class="st1" x1="507.7" y1="98" x2="554.2" y2="98"/>
		<g>
			<line class="st2" x1="507.7" y1="98" x2="537" y2="98"/>
			<g>
				<polygon points="533.7,109.9 554.2,98 533.7,86.1 				"/>
			</g>
		</g>
	</g>
	<g>
		<line class="st1" x1="542.8" y1="98" x2="589.3" y2="98"/>
		<g>
			<line class="st2" x1="542.8" y1="98" x2="572.1" y2="98"/>
			<g>
				<polygon points="568.8,109.9 589.3,98 568.8,86.1 				"/>
			</g>
		</g>
	</g>
	<g>
		<line class="st1" x1="577.9" y1="98" x2="624.4" y2="98"/>
		<g>
			<line class="st2" x1="577.9" y1="98" x2="607.5" y2="98"/>
			<g>
				<polygon points="603.9,109.9 624.4,98 603.9,86.1 				"/>
			</g>
		</g>
	</g>
</g>
<g id="_x37_jm2xk_1_">
	<g>
		<g>
			<path d="M414.1,19c1.9,0,3.8,0,5.5,0c0.5,0.2,1.2,0.2,1.7,0.5c8.4,2.1,13.8,7.4,15.5,16c0.7,3.1,0,6.2,0,9.6
				c11.5,4.3,23.2,8.8,34.6,13.4c0.5-0.7,0.7-1.4,1.2-1.9c4.8-6.7,11.2-10,19.3-9.1c8.4,1,14.1,5.7,17.2,13.6
				c0.5,1.2,0.7,2.4,1.2,3.3c0,2.1,0,4.3,0,6.4c-0.2,0.5-0.5,1-0.5,1.4c-2.4,9.8-10.7,16-20.8,15.8c-4.1,0-7.4-1.4-11-3.6
				c-4.5,5.3-8.8,10.5-13.4,15.8c4.8,6.4,9.6,12.9,14.3,19.1c10.5-5.7,20.5-2.1,26.3,4.3c2.6,3.1,3.8,6.7,5,10.3c0,1.9,0,4.1,0,6
				c-0.2,0.7-0.5,1.4-0.7,2.1c-4.1,15.3-23.2,20.3-34.1,9.1c-2.1-2.1-3.6-5-5.5-7.6c-10.5,2.4-21.5,4.8-32.7,7.4c0,1,0,1.7,0,2.4
				c0,9.1-5.5,16.7-14.1,19.6c-1,0.2-2.1,0.7-3.1,1c-2.1,0-4.3,0-6.4,0c-0.2-0.2-0.7-0.2-1-0.5c-8.6-2.1-14.1-7.6-16-16.5
				c0-0.5-0.2-1-0.5-1.4c-10.7,0-21.2,0-31.8,0c0,0.2-0.2,0.2-0.2,0.2c-0.2,0.7-0.2,1.2-0.5,1.9c-1.9,7.9-6.9,13.1-14.6,15.3
				c-0.7,0.2-1.4,0.5-2.1,0.7c-2.1,0-4.3,0-6.4,0c-9.1-2.4-15-8.1-17.2-17.2c0-1.9,0-4.1,0-6c0.2-0.7,0.5-1.4,0.5-2.1
				c2.4-9.6,10.5-15.8,20.3-15.5c3.1,0,6,1,9.1,1.7c3.8-6,7.9-12.4,11.9-18.6c-2.4-1.9-4.5-3.6-6.7-5.3c-0.5,0.5-0.7,0.7-1,1
				c-8.6,7.6-21,7.2-28.9-1.2c-2.9-3.1-4.5-6.9-5.5-11c0-1.9,0-4.1,0-6c0.2-0.5,0.2-1,0.5-1.4c2.4-10.3,11.7-17,22.4-16
				c5,0.5,9.1,2.6,12.4,6.2c2.4-1.9,4.5-3.6,6.7-5.3c-4.1-6.4-8.1-12.9-12.4-19.1c-0.7,0.2-1.2,0.5-1.7,0.7
				c-10.3,4.1-21.5-0.5-26.3-10.5c-1-1.9-1.2-3.8-1.9-6c0-1.9,0-4.1,0-6c0.2-0.5,0.2-0.7,0.5-1.2c2.1-8.4,7.4-13.4,15.5-15.5
				c0.5,0,0.7-0.2,1.2-0.5c1.9,0,4.1,0,6,0c0.2,0.2,0.7,0.2,1,0.5c8.8,1.9,14.3,7.4,16.5,16.2c0.2,0.7,0.2,1.2,0.5,1.7
				c10.7,0,21.2,0,32,0c0-0.2,0.2-0.5,0.2-0.7c0-0.5,0.2-1,0.2-1.2c1.7-7.2,5.7-12.2,12.7-15C411,19.7,412.6,19.4,414.1,19z
				 M417.2,137.1c-9.1,0-16.2,6.9-16.5,15.8c-0.2,9.1,6.7,16.5,15.8,16.7c9.1,0.2,16.5-6.9,16.7-15.8
				C433.4,144.5,426.3,137.4,417.2,137.1z M360.1,96.3c0-9.1-7.4-16.2-16.2-16.2c-9.1,0-16.2,7.4-16.2,16.5
				c0,8.8,7.4,16.2,16.2,16.2C353,112.6,360.1,105.2,360.1,96.3z M490,83.4c9.1,0,16.2-6.9,16.5-15.8c0-9.1-6.9-16.5-15.8-16.5
				c-9.3,0-16.5,6.9-16.5,16C473.8,76.3,480.9,83.4,490,83.4z M343.9,137.1c-9.1,0-16.2,7.2-16.2,16.2c0,9.1,7.2,16.2,16.2,16.2
				c9.1,0,16.2-7.2,16.2-16.2C360.1,144.3,353,137.1,343.9,137.1z M416.9,55.5c9.1,0,16.2-7.2,16.2-16.2S426,23,416.9,23
				s-16.2,7.2-16.2,16.2C400.7,48.3,407.9,55.5,416.9,55.5z M360.1,39.5c0-9.1-7.2-16.2-16-16.5c-9.1,0-16.2,7.2-16.5,16
				c0,9.1,6.9,16.2,16,16.5C352.7,55.7,360.1,48.6,360.1,39.5z M506.2,136.9c0-9.1-7.2-16.2-16.2-16.2s-16.2,7.2-16.2,16.2
				c0,9.1,7.2,16.2,16.2,16.5C499.1,153.1,506.2,145.7,506.2,136.9z M433.2,96.6c0-9.1-7.2-16.2-16-16.5c-8.8,0-16.2,7.2-16.2,16.2
				s7.2,16.2,16.2,16.5C425.8,112.8,433.2,105.4,433.2,96.6z M407.6,135c7.4-3.1,14.1-2.9,20.8,1.4c6-7.2,11.9-14.1,18.1-21.2
				c-4.3-2.4-8.6-4.8-12.9-7.2c-4.1,5.3-9.1,8.1-15.3,8.6c-6.4,0.5-11.7-1.9-16.2-6.2c-2.4,1.9-4.5,3.6-6.7,5.3
				C399.5,122.3,403.6,128.6,407.6,135z M427.9,57.4c-3.8,0.7-6.9,1.9-10.3,2.1c-3.3,0-6.7-1-10.5-1.4c-3.8,6-7.9,12.2-11.9,18.6
				c2.4,1.9,4.5,3.6,6.7,5.3c5-4.8,11-6.9,17.9-6c6.9,1,11.7,4.8,15.3,10.7c3.8-1.4,7.4-3.1,11.2-4.5
				C440.1,73.6,433.9,65.5,427.9,57.4z M435.6,48.8c-1.4,1.9-2.9,3.8-4.5,6c6.2,8.4,12.4,16.7,18.9,25.1c0.2,0.5,1.4,0.7,1.9,0.5
				c5.7-2.1,11.5-4.5,17.2-6.7c0.5-0.2,1-1,1-1.2c0-3.3-0.2-6.7-0.5-10.3C458.5,57.4,447,53.1,435.6,48.8z M436.8,146.7
				c11-2.4,22-5,32.5-7.4c0.5-3.8,1-7.2,1.4-10.7c-6.4-3.6-13.4-7.4-20.3-11.2c-6.2,7.4-12.4,14.6-18.4,21.7
				C433.7,141.7,435.1,144.1,436.8,146.7z M361.6,142.2c1.2,3.1,2.1,6,3.1,8.8c10.5,0,21,0,31.5,0c1-3.1,2.1-6,3.1-8.8
				c-6.2-4.8-12.4-9.8-18.9-14.8C374,132.6,367.8,137.4,361.6,142.2z M380.4,65c6.4-5,12.9-10,18.9-14.8c-1.2-3.1-2.1-6-3.1-8.8
				c-10.5,0-21.2,0-31.5,0c-1,3.1-2.1,6-3.1,8.8C367.8,55.3,374,60.3,380.4,65z M449.4,111.8c3.1-3.8,6.4-7.4,9.6-11.2
				c0.2-0.5,0.2-1.4,0-1.9c-2.9-4.1-6-8.1-9.1-11.9c-0.2-0.5-1.2-0.7-1.7-0.5c-3.3,1.2-6.9,2.6-10.3,4.1c-0.5,0.2-1.2,1.2-1,1.7
				c0.7,3.8,0.5,7.6-0.7,11.2c-0.2,0.5,0.2,1.4,0.7,1.7C441.1,107.3,445.1,109.4,449.4,111.8z M462.3,103.2c-3.1,3.6-6,7.2-9.1,10.7
				c6.9,3.8,13.4,7.4,20.1,11c1-1.2,1.9-2.4,2.9-3.3C471.6,115.4,467.1,109.4,462.3,103.2z M380.4,92.5c3.1-5,6.2-9.8,9.3-14.6
				c-3.3-2.6-6.2-4.8-9.3-7.2c-3.1,2.4-6.2,4.8-9.3,7.4C374.2,82.7,377.3,87.5,380.4,92.5z M389.7,114.9c-3.1-5-6.2-9.6-9.3-14.6
				c-3.3,5-6.2,9.8-9.3,14.6c3.1,2.4,6.2,4.8,9.3,7.2C383.5,119.7,386.6,117.3,389.7,114.9z M453.2,84.1c3.1,4.3,6.2,8.1,9.3,12.2
				c4.3-5,8.6-10,12.7-14.8c-1.2-1.7-2.1-3.1-3.3-4.8C465.7,79.4,459.7,81.8,453.2,84.1z M402.1,53.6c-6,4.8-12.2,9.3-18.4,14.3
				c2.9,2.1,5.5,4.3,8.1,6.4c4.1-6.4,8.1-12.7,12.2-18.9C403.3,54.8,402.9,54.3,402.1,53.6z M368.7,74.4c2.9-2.1,5.5-4.3,8.1-6.4
				c-6.2-4.8-12.2-9.6-18.4-14.3c-0.7,0.7-1.2,1.2-1.9,1.9C360.6,61.7,364.7,67.7,368.7,74.4z M377.1,125c-2.9-2.1-5.5-4.3-8.1-6.4
				c-4.1,6.4-8.1,12.7-12.2,18.9c0.7,0.7,1.4,1.2,1.9,1.9C364.9,134.3,370.9,129.7,377.1,125z M383.8,125c6.2,5,12.4,9.6,18.4,14.3
				c0.7-0.7,1.4-1.2,1.9-1.7c-4.1-6.4-8.1-12.4-12.2-18.9C389.2,120.7,386.6,122.6,383.8,125z M384.2,98.5c3.1,4.8,6,9.1,8.8,13.6
				c2.4-1.9,4.3-3.3,6.2-4.8c-1-3.1-2.1-6-3.1-8.8C392.6,98.5,388.8,98.5,384.2,98.5z M376.4,98.5c-4.3,0-8.1,0-11.9,0
				c-1,3.1-2.1,6-3.1,8.8c1.9,1.4,4.1,3.1,6.2,4.8C370.6,107.5,373.5,103.2,376.4,98.5z M393.1,80.6c-2.9,4.5-5.7,9.1-8.8,13.6
				c4.3,0,8.1,0,11.9,0c1-2.9,2.1-5.7,3.1-8.8C397.4,83.9,395.5,82.2,393.1,80.6z M367.8,80.6c-2.4,1.7-4.3,3.3-6.2,4.8
				c1,3.1,2.1,6,3.1,8.8c3.8,0,7.6,0,11.9,0C373.5,89.4,370.6,85.1,367.8,80.6z"/>
		</g>
	</g>
</g>
</svg>
