<svg id="Layer_1" data-name="Layer 1" xmlns="http://www.w3.org/2000/svg" xmlns:xlink="http://www.w3.org/1999/xlink" viewBox="0 0 850.84 191.43"><defs><style>.cls-1{fill:none;}.cls-2{clip-path:url(#clip-path);}.cls-3{clip-path:url(#clip-path-2);}.cls-4{clip-path:url(#clip-path-3);}</style><clipPath id="clip-path" transform="translate(-127.81 0.59)"><polygon class="cls-1" points="137.39 168.88 148.22 202.28 251.35 162.91 240.52 129.51 137.39 168.88"/></clipPath><clipPath id="clip-path-2" transform="translate(-127.81 0.59)"><polygon class="cls-1" points="259.94 135.17 287.56 156.85 351.18 66.64 323.56 44.96 259.94 135.17"/></clipPath><clipPath id="clip-path-3" transform="translate(-127.81 0.59)"><polygon class="cls-1" points="327.02 108.19 313.67 140.66 417.77 177.38 431.12 144.91 327.02 108.19"/></clipPath></defs><path d="M642.28,149.29c-5.51.71-10.2,1.11-14.81,2s-7.45,0-7.68-5.27a16.91,16.91,0,0,0-1-3.42c-5.19.68-10.29,1.63-15.43,1.89-2.06.1-4.19-1.33-6.29-2-1.18-.4-2.45-1.2-3.57-1-27.45,3.88-54.87,7.92-82.33,11.77-3.91.55-8.35,1.31-8.22-5.31.09-4-3.37-2.87-5.52-2.6-9.77,1.23-19.53,2.58-29.25,4.16-2.56.42-5,.77-4.75-2.42.11-1.38,2.69-3.37,4.39-3.66,10.75-1.79,21.56-3.18,32.24-4.69.31-.4.68-.65.71-.93.84-9.48.87-9.14,10.46-10.29,15.64-1.87,31.23-4.18,46.82-6.42a301.32,301.32,0,0,0,33.75-6.34c2-1.37,3.75-3.37,5.92-4a66.61,66.61,0,0,1,12.37-1.89c3.56-.28,4.71-2.07,3.88-5.17-1.33-5,1.39-6,5.45-6.47,5.12-.57,10.2-1.5,15.1-2.25.25-.74.49-1.09.44-1.38-1.81-10.12-1.6-10.27,8.61-11.72,36.51-5.16,73-10.44,109.52-15.62,23.08-3.28,46.17-6.44,69.25-9.7a31.26,31.26,0,0,0,4.28-1.23c0-.94,0-1.46,0-2-.69-7.24-.65-7.45,6.4-8.56,9.39-1.48,18.82-2.72,28.23-4.14a55.16,55.16,0,0,0,5.34-1.41c-.63-3.64-1.38-7.11-1.81-10.62-.35-3,0-5.57,4-5.87,3.1-.23,6.24-1.66,9.2-1.29a8.26,8.26,0,0,1,5.66,4.15c4.67,11.16,8.87,22.51,13.14,33.83a48.91,48.91,0,0,1,1.4,6.54c3.77-.36,7.8-.6,11.79-1.15q18.35-2.5,36.65-5.25c2.79-.41,5.46-.54,5.85-4.93.47-5.15,6-8.77,11-8.47,5.42.32,8.9,3.87,9.78,9.71q2.49,16.65,5.14,33.28c1.58,9.83-3.24,16.54-11.53,15.18-2.76-.46-6.28-2.29-7.56-4.56-2.19-3.87-4.32-4.09-8.33-3.44-15.56,2.49-31.21,4.44-47.12,6.63a46.6,46.6,0,0,0,6.67,25.31c6.75,11.65,9.27,24.29,5,37.54A39.45,39.45,0,0,1,896,189a14,14,0,0,1-18.73-4.77,15,15,0,0,1,2.67-19.72c9.21-7.84,9.52-9.46,4.33-20.46-2.48-5.27-4.79-10.64-7.45-16.58-14.29,2-29.39,4.09-44.47,6.24q-35.12,5-70.22,10.09-38.22,5.46-76.43,10.84c-11.88,1.68-23.78,3.23-35.64,5-4.45.67-6.67-.59-6.59-5.36C643.47,152.72,642.72,151.07,642.28,149.29ZM641,89.14c.75,4.85,1.43,8.76,2,12.68,2.16,15.74,4.25,31.49,6.43,47.23.44,3.19,2.17,4.1,5.52,3.55,13.14-2.16,26.33-4.08,39.52-5.94,20.74-2.93,41.51-5.64,62.25-8.61,23.12-3.32,46.2-6.92,69.32-10.23,23-3.29,46-6.32,68.91-9.71,1.24-.18,3.06-2.65,3-4-.09-4-1-7.93-1.55-11.89-1.82-12.54-3.65-25.07-5.49-37.72a15.85,15.85,0,0,0-3.05-.25c-15.69,2.26-31.34,4.84-47.06,6.75-10.52,1.28-10.41,4-13.09-8.52Zm261.26,7.23,54-7.76c-1.24-8.17-2.38-15.63-3.54-23.29L899,73C900.07,80.6,901.07,87.94,902.22,96.37Zm-394.3,38.17c.37,3.13.83,5.65.91,8.19.11,3.44,1.92,4,4.85,3.55,10.91-1.72,21.82-3.44,32.75-5,16-2.29,32.11-4.46,49-6.8-.47-4-.92-7.84-1.43-12.2Zm376-8c1.9,4.57,3.16,8.49,5.08,12,7.62,14.16,6.7,21-4.59,31.41-.38.35-1.12.65-1.15,1-.27,3.22-1.51,6.95-.33,9.56a6.84,6.84,0,0,0,9.78,2.91c7.23-4.05,12.93-9.84,15.84-17.82,5.63-15.42.36-28.73-8-41.43Zm-248-24.76c-4.64.54-8.48.67-12.12,1.6-1.21.31-2.87,2.76-2.7,4,1.59,12.25,3.54,24.44,5.46,37.17,3.79-.45,7.17-1.17,10.55-1.18,3.61,0,4.72-1.67,4.26-4.83C639.63,126.45,637.81,114.38,635.93,101.76ZM869.22,60.22c-.59-4.72-1.14-9.09-1.75-13.9-8.08,1.12-15.74,2.31-23.43,3.22-10.63,1.25-10.65,1.15-9.3,11.89.13,1,.35,2,.64,3.59ZM972.47,93.76c-1.93-12.87-3.75-24.29-5.27-35.75-.46-3.39-2.32-5.76-5.14-4.92-1.68.5-3.6,4.31-3.36,6.4,1.29,11.26,3.41,22.43,4.84,33.69.43,3.34,2.28,5.21,4.83,4.72C970.2,97.55,971.56,94.74,972.47,93.76ZM618.29,135.63c-.8-6.24-1.38-12-2.41-17.79-.22-1.22-2.16-3.15-3.15-3-4.2.39-8.34,1.42-12.86,2.28l3.43,21.17ZM889,57.21c-3.65-9.25-6.76-17.63-10.34-25.8-.7-1.59-3.2-2.4-4.87-3.58-.56.42-1.13.83-1.7,1.24,1.23,9.52,2.43,19,3.79,28.54.07.54,1.59,1.31,2.35,1.23C881.63,58.48,885,57.84,889,57.21Z" transform="translate(-127.81 0.59)"/><path d="M801.1,85.44c4.33-2.18,5.41,1.21,6,5,.9,5.45,2,10.91,2.24,16.39.06,1.5-2.43,4.21-4.09,4.52-11,2-22.19,3.64-33.32,5.24-11.48,1.65-23,3-34.47,4.77-3.26.49-4.62-.93-5-3.65-.86-5.82-1.29-11.72-2.33-17.5-.63-3.57.82-4.69,3.94-5.14,14-2,28.06-4.14,42.1-6.17C784.23,87.71,792.3,86.65,801.1,85.44Zm-64.34,15.67c.35,3.83.36,6.46.87,9,.61,3,1.29,5.32,5.82,4,5.62-1.56,11.64-1.66,17.47-2.45,12.87-1.75,25.74-3.48,38.58-5.42,1.09-.17,2.82-1.91,2.76-2.83-.22-3.74-1-7.44-1.68-11.49Z" transform="translate(-127.81 0.59)"/><g class="cls-2"><g id="_0SiZzK" data-name="0SiZzK"><path d="M227.24,140.64l-.16-.83c-.4-2.26.15-3.88,1.63-4.51,2.45-1,4.91-2,7.38-3,1.59-.61,3.27.71,3.92,3.09q2.94,10.71,5.82,21.44c.63,2.36-.17,4.36-1.86,4.63-2.71.45-5.43.82-8.17,1.13-1.47.16-2.7-1.2-3.64-3.86-1,.2-2.09.38-3.14.59l-28.3,5.93L168.16,172q-11.58,2.4-23.14,4.84c-1.92.4-3.59-.87-4.28-3.33s0-4.73,1.92-5.34L180.17,156l45.93-14.94C226.47,141,226.84,140.79,227.24,140.64Zm.64,2.31c-.37.1-.64.16-.9.24-4.13,1.35-8.25,2.72-12.38,4.06q-13.92,4.51-27.85,9-21.65,7-43.28,14.11c-1.13.37-1.53,1.18-1.19,2.53s1,1.88,2.26,1.63l17.63-3.67L199,163.26l29.75-6.2c.92-.2,1.82-.49,2.76-.74Zm13.49,3.66c-.93-3.44-1.85-6.89-2.8-10.33-.47-1.68-1-2.08-2.15-1.61-2.2.91-4.39,1.82-6.6,2.7-1.21.49-1.41,1.07-.91,2.91q2.42,8.94,4.84,17.86c.5,1.84,1,2.31,2.25,2.14q3.5-.45,7-1c1.42-.22,1.63-.77,1.1-2.73C243.18,153.24,242.27,149.93,241.37,146.61Z" transform="translate(-127.81 0.59)"/><path d="M201.45,81.42c-1.42-2.86-1.34-4.57.22-6.36,1.72-2,3.43-4,5.15-5.91,1.45-1.65,3.25-1.16,4.64,1.3q5.14,9.08,10.24,18.18c1.38,2.48,1.17,4.79-.53,6-1.89,1.4-3.8,2.76-5.71,4.14-2.12,1.54-3.07,1.28-5.14-1.49-1.12.91-2.26,1.83-3.4,2.77L138.7,156.53a2.47,2.47,0,0,1-3.52.15,5.81,5.81,0,0,1-2.05-4.22A4.08,4.08,0,0,1,134.3,149q8.74-8.76,17.46-17.57,24.5-24.63,49-49.27C201,82,201.19,81.71,201.45,81.42Zm1.16,2-.75.71-61.74,62.15c-1.6,1.61-3.21,3.2-4.8,4.84a2.36,2.36,0,0,0-.15,2.81c.58,1.07,1.33,1.37,2.12.84.21-.14.4-.31.6-.47L208.4,96c.29-.23.56-.51.85-.78Zm10.88,14c.13-.08.29-.16.44-.27,2.08-1.52,4.17-3,6.24-4.56.91-.67,1-1.47.23-2.82q-5.06-9-10.16-18.08c-.81-1.43-1.42-1.55-2.3-.55-1.46,1.66-2.89,3.36-4.37,5-1.94,2.14-1.87,2.31-.16,5.31,2.81,4.92,5.58,9.87,8.35,14.82C212.23,97.08,212.75,97.55,213.49,97.42Z" transform="translate(-127.81 0.59)"/><path d="M216,110c-.11-.4-.19-.73-.29-1.06-.58-2-.25-3.78.94-4.66,2.2-1.64,4.4-3.26,6.62-4.83,1.52-1.07,3.32-.13,4.29,2.24q4.07,9.87,8.06,19.78c1.25,3.1.68,5.12-1.5,6s-4.05,1.68-6.09,2.47c-2.4.93-3.27.44-5-2.7l-6.83,3.32-18.4,9-18.48,9L159.76,158c-5.71,2.78-11.46,5.48-17.12,8.41-2.92,1.52-5.27-1.87-5.27-4.79a3.68,3.68,0,0,1,1.72-3.45q7.88-4.89,15.74-9.83l46.54-29.16,14.28-9A4.44,4.44,0,0,0,216,110Zm1,2.17a4.14,4.14,0,0,0-.39.21l-20,12.49-50.53,31.67c-2.11,1.32-4.22,2.62-6.31,3.95a2.21,2.21,0,0,0-.5,2.78c.42,1,1.15,1.49,2,1.2a5.79,5.79,0,0,0,.68-.29l17.74-8.64q15.51-7.59,31-15.17t30.95-15.06a2.79,2.79,0,0,0,.5-.43ZM226.54,128c2.48-1,4.89-2,7.28-3,.84-.35,1-1.27.48-2.55q-1.86-4.62-3.74-9.22c-1.44-3.52-2.86-7-4.32-10.54-.58-1.4-1.19-1.75-2-1.2-2.17,1.55-4.32,3.12-6.47,4.71-.76.56-.87,1.36-.38,2.56q3.62,8.91,7.24,17.82C225.16,127.8,225.81,128.23,226.54,128Z" transform="translate(-127.81 0.59)"/><path d="M183.81,56c-1.74-2.75-1.86-4.38-.56-6.65s2.72-4.78,4.09-7.15c1.16-2,2.89-2,4.5.11q6.16,8.08,12.27,16.25c1.56,2.08,1.63,4.47.26,6.07-1.64,1.91-3.3,3.79-5,5.67-1.79,2-2.85,2-5.07-.31-.24.29-.5.59-.75.91q-29.9,38.21-59.76,76.44c-1.62,2.08-3.82,1.51-5.13-.71a5.44,5.44,0,0,1-.08-5.83l15-23,39.6-60.85Zm1.62,1.34c-.27.4-.47.68-.66,1q-18.83,28.93-37.67,57.87-8.5,13-17,26.13a3,3,0,0,0-.51,1.91,3.85,3.85,0,0,0,1.11,1.95c.75.67,1.29.05,1.77-.57l60.3-77.08c.18-.23.33-.5.51-.77ZM197,69.59c.37-.36.64-.59.88-.86,1.66-1.89,3.31-3.77,5-5.66,1.1-1.25,1.07-1.92-.16-3.55q-4-5.37-8.09-10.72c-1.27-1.67-2.52-3.36-3.79-5-.78-1-1.46-1.08-2-.2-1.52,2.6-3,5.21-4.49,7.91a2.81,2.81,0,0,0,0,2,19.58,19.58,0,0,0,2.1,3.67c3,4,5.87,8.3,9.32,11.64A6.6,6.6,0,0,0,197,69.59Z" transform="translate(-127.81 0.59)"/><path d="M234.5,141.43c-1.09.3-2.17.62-3.28.87-.2,0-.48-.24-.72-.38.14-.24.23-.64.42-.7,2.21-.64,4.42-1.24,6.65-1.8.2,0,.49.24.73.38-.14.24-.24.63-.43.69C236.76,140.85,235.63,141.13,234.5,141.43Z" transform="translate(-127.81 0.59)"/><path d="M236.44,148.48c-1.06.29-2.12.61-3.2.84-.23.05-.54-.21-.82-.32.16-.26.27-.68.48-.74,2.18-.64,4.36-1.23,6.56-1.78.21-.06.5.21.75.33-.16.26-.28.68-.5.75C238.64,147.92,237.53,148.18,236.44,148.48Z" transform="translate(-127.81 0.59)"/><path d="M238.29,155.46c-1.07.29-2.13.61-3.21.85-.22.05-.51-.18-.76-.28.15-.27.25-.71.46-.77q3.27-1,6.59-1.79c.2-.06.49.23.74.36-.15.23-.25.62-.44.69C240.55,154.87,239.42,155.15,238.29,155.46Z" transform="translate(-127.81 0.59)"/><path d="M212,93.8c-.15-.11-.4-.19-.51-.39a.78.78,0,0,1,.08-.65c.4-.44.84-.82,1.27-1.22,1.34-1.24,2.66-2.5,4-3.69.25-.21.64-.14,1-.2-.12.38-.16.9-.38,1.11-1.65,1.59-3.33,3.11-5,4.65Z" transform="translate(-127.81 0.59)"/><path d="M214.54,81.88a2.93,2.93,0,0,1-.41.64c-1.73,1.62-3.46,3.24-5.22,4.82-.19.17-.54.06-.82.08.1-.36.11-.87.3-1.06,1.69-1.63,3.41-3.21,5.14-4.76.21-.19.57-.13.85-.18Z" transform="translate(-127.81 0.59)"/><path d="M205,81.5c-.13-.08-.43-.21-.43-.3a1.34,1.34,0,0,1,.13-.84c.71-.73,1.47-1.38,2.21-2.06,1-.93,2-1.88,3-2.75.24-.2.63-.09.95-.13-.12.36-.16.84-.37,1-1.67,1.6-3.37,3.15-5.07,4.71C205.36,81.28,205.23,81.36,205,81.5Z" transform="translate(-127.81 0.59)"/><path d="M225.28,124.23c-.12-.08-.46-.2-.47-.31,0-.28,0-.72.15-.8,2.11-1.23,4.22-2.42,6.36-3.58.14-.07.42.23.64.35-.12.27-.19.68-.38.8-1.62.94-3.26,1.84-4.89,2.75Z" transform="translate(-127.81 0.59)"/><path d="M219.87,110.85l-.56-.34c.08-.26.09-.67.24-.76,2.07-1.22,4.16-2.4,6.25-3.55.15-.08.44.17.66.26-.12.3-.17.77-.37.89-1.64,1-3.3,1.87-5,2.79Z" transform="translate(-127.81 0.59)"/><path d="M222.46,118.09a4,4,0,0,1-.4-1,.94.94,0,0,1,.27-.73c2-1.19,4.1-2.36,6.17-3.49.17-.09.45.11.68.18-.05.28,0,.74-.16.82-2.1,1.22-4.21,2.39-6.33,3.58Z" transform="translate(-127.81 0.59)"/><path d="M196.38,53.28a5.85,5.85,0,0,1-.38.79c-1.43,2-2.85,4.07-4.32,6.06-.16.23-.55.16-.83.23a3.18,3.18,0,0,1,.19-1c1.41-2.06,2.85-4.08,4.3-6.09a1.25,1.25,0,0,1,.69-.36C196.09,52.85,196.22,53.08,196.38,53.28Z" transform="translate(-127.81 0.59)"/><path d="M187.18,55.22c-.16-.13-.45-.27-.46-.38a1.62,1.62,0,0,1,.14-.88c.66-1,1.35-1.92,2-2.88.8-1.12,1.58-2.27,2.41-3.35.16-.2.51-.13.77-.18,0,.33,0,.77-.11,1-1.47,2.14-3,4.24-4.47,6.35C187.4,55,187.31,55.07,187.18,55.22Z" transform="translate(-127.81 0.59)"/><path d="M200.43,58.64a3.87,3.87,0,0,1-.31.77c-1.45,2.07-2.89,4.13-4.37,6.14-.16.22-.51.19-.78.27,0-.36,0-.86.13-1.07q2.16-3.18,4.41-6.24c.15-.22.5-.16.76-.23Z" transform="translate(-127.81 0.59)"/></g></g><g class="cls-3"><g id="_0SiZzK-2" data-name="0SiZzK"><path d="M318.75,61.61l-.59-.6c-1.6-1.66-2.05-3.31-1.17-4.65q2.17-3.34,4.47-6.6c1-1.39,3.1-1.23,5,.38q8.42,7.24,16.79,14.55c1.84,1.61,2.29,3.71,1,4.88q-3,2.82-6.15,5.49c-1.13,1-2.91.52-5.18-1.16-.75.74-1.52,1.47-2.27,2.24q-10.1,10.33-20.18,20.7-11.62,11.89-23.26,23.76-8.27,8.46-16.51,16.93c-1.37,1.4-3.46,1.27-5.41-.38s-2.61-3.94-1.38-5.51q12.16-15.51,24.34-31L318,62.6C318.28,62.29,318.5,62,318.75,61.61Zm1.82,1.55c-.26.3-.45.5-.62.71-2.67,3.42-5.33,6.86-8,10.27q-9,11.52-18.08,23L265.82,133c-.73.94-.61,1.84.42,2.77s1.92,1,2.79.08L281.62,123q13.15-13.43,26.3-26.86,10.62-10.86,21.23-21.74c.66-.68,1.24-1.42,1.88-2.16Zm13.24-4.48c-2.7-2.34-5.39-4.69-8.09-7-1.33-1.14-2-1.14-2.69-.14-1.31,2-2.63,4-4,5.92-.74,1.08-.58,1.68.86,2.93l14,12.12c1.43,1.25,2.08,1.38,3.06.52,1.76-1.55,3.51-3.12,5.23-4.71,1.06-1,.92-1.54-.61-2.88C339,63.17,336.41,60.93,333.81,58.68Z" transform="translate(-127.81 0.59)"/><path d="M264.31,26.85c-2.77-1.59-3.66-3.05-3.36-5.41.32-2.59.64-5.19,1-7.77.29-2.18,2.05-2.78,4.58-1.51q9.31,4.66,18.64,9.38c2.53,1.28,3.63,3.32,2.93,5.3-.79,2.22-1.62,4.42-2.43,6.62-.9,2.46-1.83,2.78-5.1,1.63-.42,1.38-.86,2.78-1.28,4.2q-12.57,42.45-25.12,84.9a2.49,2.49,0,0,1-2.85,2.09,5.83,5.83,0,0,1-4-2.36,4.07,4.07,0,0,1-.94-3.5q2.37-12.15,4.69-24.32Q257.58,62,264.15,27.88C264.21,27.56,264.25,27.23,264.31,26.85Zm2.08,1c-.1.44-.16.73-.22,1q-8.28,43-16.57,86c-.43,2.23-.88,4.45-1.28,6.69a2.35,2.35,0,0,0,1.44,2.42c1.08.56,1.87.4,2.23-.48.09-.24.16-.49.23-.73q13-43.87,26-87.74c.1-.35.17-.73.27-1.12Zm16.84,5.54a3.59,3.59,0,0,0,.21-.47c.88-2.41,1.77-4.83,2.64-7.25.38-1.07,0-1.78-1.38-2.48q-9.26-4.68-18.52-9.33c-1.48-.74-2.05-.5-2.22.83-.29,2.18-.53,4.39-.85,6.57-.42,2.85-.26,3,2.83,4.49,5.07,2.52,10.14,5.08,15.2,7.64C282,33.83,282.68,33.93,283.23,33.4Z" transform="translate(-127.81 0.59)"/><path d="M292.34,42.42c-.31-.27-.56-.5-.83-.72-1.6-1.33-2.32-3-1.82-4.4.91-2.58,1.83-5.16,2.8-7.7.66-1.73,2.68-2,4.81-.54Q306.18,35,315,41c2.76,1.88,3.42,3.86,2.08,5.79s-2.42,3.66-3.68,5.45c-1.47,2.11-2.47,2.19-5.66.56L304,59.35,293.69,77.06l-10.31,17.8-10.92,18.83c-3.19,5.5-6.46,10.94-9.52,16.53-1.58,2.89-5.42,1.4-7.05-1a3.69,3.69,0,0,1-.5-3.81q3.81-8.46,7.58-16.94,11.19-25.08,22.36-50.17,3.42-7.69,6.85-15.41C292.24,42.71,292.29,42.57,292.34,42.42Zm2,1.25a4.13,4.13,0,0,0-.21.39q-4.8,10.75-9.6,21.51l-24.27,54.48c-1,2.26-2,4.52-3,6.79a2.2,2.2,0,0,0,1.14,2.58c.93.63,1.79.6,2.32-.11a6.65,6.65,0,0,0,.41-.62q5-8.53,9.89-17.07,8.64-14.94,17.28-29.89T305.58,52a2.69,2.69,0,0,0,.18-.64Zm16.74,7.83c1.5-2.22,3-4.36,4.39-6.52.5-.75.13-1.61-1-2.38q-4.12-2.81-8.25-5.57-4.73-3.18-9.46-6.34c-1.27-.83-2-.78-2.3.1-.93,2.5-1.85,5-2.74,7.52-.32.89,0,1.61,1.11,2.34q8,5.39,16,10.75C309.86,52.12,310.64,52.11,311.11,51.5Z" transform="translate(-127.81 0.59)"/><path d="M235.46,15.56c-3-1.31-4-2.6-4.17-5.21s-.41-5.48-.6-8.22C230.54-.18,232-1.14,234.5-.28Q244.12,3,253.74,6.36c2.46.86,3.85,2.8,3.6,4.89-.3,2.5-.63,5-.95,7.47-.34,2.7-1.25,3.25-4.38,2.57,0,.38-.09.78-.12,1.18q-3.49,48.38-6.95,96.78c-.18,2.63-2.33,3.38-4.65,2.27a5.44,5.44,0,0,1-3.32-4.8q-.21-13.74-.4-27.48l-1.08-72.59C235.49,16.3,235.47,16,235.46,15.56Zm2.09.2v1.18l1,69q.23,15.58.48,31.17a3,3,0,0,0,.64,1.87,3.86,3.86,0,0,0,2,1c1,.14,1.1-.68,1.15-1.46q3.51-48.81,7-97.61c0-.29,0-.59,0-.92ZM254,19.49c.11-.5.2-.84.25-1.2q.48-3.73,1-7.46c.21-1.65-.19-2.19-2.11-2.86l-12.7-4.38c-2-.68-4-1.39-5.94-2-1.21-.4-1.81-.09-1.75.93.19,3,.38,6,.69,9.07a2.83,2.83,0,0,0,1.08,1.63,19.44,19.44,0,0,0,3.8,1.88c4.74,1.62,9.5,3.61,14.22,4.46A6.28,6.28,0,0,0,254,19.49Z" transform="translate(-127.81 0.59)"/><path d="M325.22,58.21c-.74.86-1.46,1.73-2.24,2.55-.15.15-.54.07-.81.09,0-.27-.17-.66,0-.81,1.47-1.77,3-3.5,4.51-5.21.14-.15.54-.07.82-.1,0,.28.15.66,0,.83C326.76,56.47,326,57.33,325.22,58.21Z" transform="translate(-127.81 0.59)"/><path d="M330.76,63c-.72.83-1.42,1.69-2.19,2.48-.16.17-.57.14-.86.19,0-.3-.16-.71,0-.88q2.18-2.61,4.45-5.14c.14-.16.53-.09.81-.13,0,.3.14.71,0,.89C332.27,61.29,331.5,62.12,330.76,63Z" transform="translate(-127.81 0.59)"/><path d="M336.19,67.74c-.73.84-1.43,1.69-2.2,2.5-.15.16-.51.13-.78.19,0-.31-.19-.73,0-.9q2.19-2.62,4.47-5.16c.14-.16.54-.08.82-.11,0,.27.14.65,0,.82C337.74,66,337,66.86,336.19,67.74Z" transform="translate(-127.81 0.59)"/><path d="M280,31.24a1.28,1.28,0,0,1-.64,0,.83.83,0,0,1-.3-.58c.09-.59.24-1.15.38-1.72.42-1.78.81-3.56,1.28-5.31.08-.31.45-.48.69-.71.11.38.37.84.31,1.14-.49,2.23-1,4.44-1.57,6.65Z" transform="translate(-127.81 0.59)"/><path d="M275.43,19.93a3.25,3.25,0,0,1,0,.76c-.54,2.31-1.07,4.62-1.65,6.9-.06.26-.42.36-.64.53-.12-.35-.39-.78-.33-1.05.49-2.29,1-4.56,1.6-6.81.07-.28.4-.42.61-.63Z" transform="translate(-127.81 0.59)"/><path d="M267.34,24.91c-.16,0-.48.06-.54,0-.18-.23-.39-.58-.35-.77.18-1,.45-2,.68-2.94.32-1.33.6-2.67,1-4,.09-.29.48-.43.72-.64.1.36.34.79.28,1.07-.5,2.26-1.05,4.5-1.59,6.74A5.11,5.11,0,0,1,267.34,24.91Z" transform="translate(-127.81 0.59)"/><path d="M308,49.08c-.14,0-.5.09-.57,0s-.38-.6-.31-.74c1.05-2.2,2.15-4.37,3.27-6.52.08-.14.48,0,.73-.07.05.3.22.68.13.88-.81,1.68-1.67,3.34-2.52,5C308.47,48.08,308.25,48.53,308,49.08Z" transform="translate(-127.81 0.59)"/><path d="M296,41l-.65,0c-.08-.26-.3-.61-.22-.76q1.55-3.25,3.2-6.43c.08-.15.46-.11.7-.16.07.32.28.74.18.95-.82,1.71-1.69,3.39-2.55,5.08Z" transform="translate(-127.81 0.59)"/><path d="M302.21,45.56a4,4,0,0,1-.87-.57.93.93,0,0,1-.18-.76q1.54-3.19,3.17-6.33c.09-.17.44-.16.67-.23.11.26.39.62.32.76-1.06,2.19-2.16,4.35-3.25,6.51Z" transform="translate(-127.81 0.59)"/><path d="M244.4,6.32a6.45,6.45,0,0,1,.13.86c-.05,2.49-.1,5-.2,7.45,0,.28-.37.44-.57.65a3.11,3.11,0,0,1-.43-1q0-3.75.17-7.45a1.25,1.25,0,0,1,.38-.69S244.15,6.24,244.4,6.32Z" transform="translate(-127.81 0.59)"/><path d="M237.85,13.06c-.2,0-.53,0-.59-.06a1.59,1.59,0,0,1-.38-.8c0-1.18.05-2.35.08-3.52,0-1.38,0-2.77.13-4.12,0-.26.35-.4.53-.59.16.29.45.63.45.87,0,2.6-.1,5.18-.17,7.76C237.9,12.74,237.87,12.87,237.85,13.06Z" transform="translate(-127.81 0.59)"/><path d="M250.75,8.51a3.75,3.75,0,0,1,.17.82q-.06,3.78-.19,7.53c0,.27-.33.44-.5.65-.17-.32-.5-.69-.5-1,0-2.56.09-5.1.18-7.64,0-.26.33-.41.5-.61Z" transform="translate(-127.81 0.59)"/></g></g><g class="cls-4"><g id="_0SiZzK-3" data-name="0SiZzK"><path d="M413.79,144.8l.42-.73c1.16-2,2.62-2.87,4.16-2.39,2.54.8,5.06,1.63,7.56,2.51,1.61.56,2,2.65,1,4.89q-4.69,10.06-9.45,20.11c-1,2.2-2.94,3.21-4.41,2.33q-3.53-2.13-6.95-4.43c-1.23-.83-1.29-2.66-.29-5.3-.91-.52-1.83-1.07-2.77-1.58l-25.41-13.8-29.19-15.93q-10.38-5.66-20.77-11.29c-1.72-.93-2.17-3-1.11-5.31s3.08-3.58,4.93-2.82l36.46,15,44.69,18.33C413,144.54,413.39,144.66,413.79,144.8Zm-1,2.17c-.35-.16-.59-.29-.85-.4-4-1.64-8-3.26-12.06-4.91q-13.53-5.57-27.07-11.14l-42.13-17.26c-1.1-.45-1.93-.08-2.55,1.16s-.42,2.11.68,2.71l15.81,8.62,33,18,26.69,14.53c.83.45,1.71.8,2.59,1.22Zm7.92,11.53c1.51-3.23,3-6.46,4.54-9.69.74-1.59.55-2.26-.59-2.63q-3.41-1.08-6.78-2.2c-1.24-.42-1.77-.1-2.58,1.63l-7.87,16.74c-.81,1.73-.76,2.38.34,3.09,2,1.28,4,2.54,5.94,3.76,1.23.75,1.74.47,2.61-1.37Q418.53,163.17,420.71,158.5Z" transform="translate(-127.81 0.59)"/><path d="M432.46,83c.77-3.09,1.94-4.35,4.29-4.7,2.58-.39,5.16-.79,7.75-1.17,2.17-.32,3.22,1.21,2.69,4q-1.95,10.24-4,20.49c-.55,2.78-2.21,4.4-4.31,4.26-2.35-.16-4.69-.36-7-.54-2.62-.2-3.17-1-3-4.47-1.44,0-2.91-.07-4.38-.08q-44.26-.57-88.54-1.12a2.48,2.48,0,0,1-2.78-2.17,5.84,5.84,0,0,1,1.17-4.54,4.07,4.07,0,0,1,3.12-1.86Q349.85,90,362.2,89l69.22-5.87C431.74,83.06,432.07,83,432.46,83Zm-.41,2.28c-.45,0-.75,0-1,.07l-87.29,7.42c-2.26.19-4.52.36-6.78.58a2.36,2.36,0,0,0-1.94,2c-.25,1.2.12,1.91,1.07,2a6.43,6.43,0,0,0,.76,0l91.5,1.18c.37,0,.75,0,1.15,0ZM431.29,103a3.22,3.22,0,0,0,.51.08c2.56.19,5.13.39,7.7.57,1.12.07,1.71-.49,2-2q2-10.18,4-20.36c.31-1.62-.08-2.11-1.4-1.91-2.19.32-4.38.68-6.55,1-2.87.37-2.92.55-3.56,3.94-1.05,5.57-2.14,11.14-3.23,16.71C430.54,101.88,430.63,102.57,431.29,103Z" transform="translate(-127.81 0.59)"/><path d="M425.09,114.17c.18-.37.33-.68.47-1,.84-1.9,2.25-3.05,3.73-3,2.74.17,5.46.36,8.18.61,1.84.16,2.61,2,1.82,4.48q-3.3,10.16-6.67,20.3c-1.05,3.16-2.78,4.34-5,3.58s-4.18-1.34-6.24-2.07c-2.43-.84-2.78-1.77-2.08-5.29l-7.35-1.9-19.84-5.06-19.92-5.08q-10.54-2.7-21.09-5.4c-6.16-1.58-12.29-3.25-18.5-4.67-3.21-.74-2.82-4.84-.92-7.07a3.69,3.69,0,0,1,3.54-1.51q9.16,1.36,18.36,2.69l54.36,7.89,16.69,2.41C424.78,114.16,424.93,114.16,425.09,114.17Zm-.65,2.29a4.31,4.31,0,0,0-.44-.09L400.7,113l-59-8.56c-2.45-.36-4.9-.73-7.36-1.07-.92-.13-1.78.61-2.18,1.79s-.08,1.88.74,2.2a5.88,5.88,0,0,0,.71.23l19.11,4.88q16.72,4.26,33.46,8.52t33.35,8.55a2.45,2.45,0,0,0,.66,0Zm-3,18.24c2.55.84,5,1.67,7.47,2.46.86.28,1.59-.32,2-1.63,1.05-3.15,2.08-6.3,3.12-9.46,1.18-3.6,2.37-7.21,3.52-10.82.46-1.45.23-2.11-.71-2.19q-4-.33-8-.6c-.94-.06-1.55.48-1.95,1.71q-3,9.14-6,18.27C420.52,133.67,420.73,134.41,421.44,134.7Z" transform="translate(-127.81 0.59)"/><path d="M435.49,52.13c.45-3.22,1.41-4.54,3.87-5.43s5.17-1.88,7.75-2.8c2.18-.78,3.5.35,3.36,3q-.54,10.16-1.16,20.33c-.16,2.6-1.65,4.46-3.74,4.79-2.48.39-5,.75-7.44,1.12-2.69.4-3.47-.33-3.67-3.52l-1.16.21q-47.51,9.78-95,19.6c-2.58.53-3.88-1.33-3.45-3.87a5.44,5.44,0,0,1,3.72-4.49l26.34-7.85,69.57-20.76Zm.37,2.07-1.13.32L368.56,74.26c-9.95,3-19.91,5.92-29.87,8.93a3,3,0,0,0-1.62,1.12,3.89,3.89,0,0,0-.41,2.21c.13,1,.95.86,1.72.71l95.85-19.75c.28,0,.57-.16.88-.25Zm.89,16.89c.52,0,.87,0,1.23-.09l7.44-1.11c1.64-.25,2.05-.78,2.17-2.81q.39-6.7.76-13.41c.12-2.09.26-4.19.36-6.28.05-1.27-.41-1.76-1.37-1.43-2.85,1-5.7,2-8.54,3.13a2.88,2.88,0,0,0-1.29,1.49,19.32,19.32,0,0,0-.76,4.16c-.28,5-.91,10.12-.44,14.9A6.45,6.45,0,0,0,436.75,71.09Z" transform="translate(-127.81 0.59)"/><path d="M418.82,150.1c-1-.48-2.06-.93-3.06-1.46-.18-.1-.21-.5-.31-.75.26-.1.59-.34.78-.26,2.09.94,4.17,1.91,6.23,2.93.18.09.22.5.32.76-.27.09-.6.32-.79.24C420.92,151.12,419.88,150.6,418.82,150.1Z" transform="translate(-127.81 0.59)"/><path d="M415.74,156.73c-1-.47-2-.91-3-1.43-.22-.11-.29-.51-.43-.78.29-.09.65-.34.85-.25,2.07.92,4.12,1.89,6.15,2.89.2.09.24.48.36.74-.29.09-.65.33-.87.25C417.77,157.72,416.76,157.21,415.74,156.73Z" transform="translate(-127.81 0.59)"/><path d="M412.63,163.25c-1-.47-2-.92-3-1.43-.2-.11-.27-.47-.39-.71.28-.1.65-.38.84-.29q3.12,1.4,6.19,2.9c.18.09.22.5.33.76-.27.08-.6.31-.79.23C414.73,164.27,413.69,163.74,412.63,163.25Z" transform="translate(-127.81 0.59)"/><path d="M432.48,99.22c0-.18-.18-.4-.13-.63a.8.8,0,0,1,.48-.44c.59-.08,1.17-.08,1.76-.11,1.82-.08,3.64-.18,5.45-.21.33,0,.58.31.87.47-.34.21-.71.59-1,.61-2.28.14-4.55.21-6.83.3Z" transform="translate(-127.81 0.59)"/><path d="M442.14,91.79a3,3,0,0,1-.73.22c-2.37.12-4.73.23-7.09.29-.26,0-.45-.3-.68-.47.31-.21.64-.59.92-.61q3.51-.21,7-.3c.29,0,.52.27.77.41Z" transform="translate(-127.81 0.59)"/><path d="M435.14,85.35c0-.15-.18-.44-.13-.51.18-.24.45-.54.65-.56,1-.09,2-.1,3-.14,1.37,0,2.74-.14,4.08-.14.31,0,.55.34.81.52-.32.19-.66.54-.95.55-2.31.14-4.61.22-6.91.31A4,4,0,0,1,435.14,85.35Z" transform="translate(-127.81 0.59)"/><path d="M422.93,131c-.05-.14-.23-.45-.17-.54s.48-.54.64-.51c2.4.42,4.78.88,7.16,1.38.15,0,.18.45.26.69-.27.13-.58.39-.8.36-1.85-.33-3.68-.7-5.51-1.07Z" transform="translate(-127.81 0.59)"/><path d="M427.46,117.32l-.21-.62c.23-.15.51-.46.68-.43,2.36.42,4.71.86,7.05,1.35.18,0,.23.4.35.62-.29.15-.64.47-.86.43-1.88-.32-3.73-.7-5.59-1.07Z" transform="translate(-127.81 0.59)"/><path d="M424.75,124.52a3.31,3.31,0,0,1,.31-1,.89.89,0,0,1,.68-.39q3.5.61,6.95,1.34c.19,0,.28.37.41.57-.22.18-.5.55-.65.52-2.39-.42-4.77-.9-7.15-1.36Z" transform="translate(-127.81 0.59)"/><path d="M446.81,58.23a6.69,6.69,0,0,1-.8.36c-2.41.62-4.82,1.26-7.22,1.83-.27.06-.52-.24-.78-.37.27-.23.55-.61.82-.68,2.41-.65,4.81-1.27,7.22-1.86a1.23,1.23,0,0,1,.76.18C446.86,57.71,446.81,58,446.81,58.23Z" transform="translate(-127.81 0.59)"/><path d="M438.54,53.76c0-.2-.17-.5-.1-.59a1.58,1.58,0,0,1,.67-.58c1.13-.33,2.27-.6,3.4-.89,1.34-.34,2.68-.71,4-1,.25-.05.47.23.71.36-.24.23-.49.6-.72.67-2.51.67-5,1.3-7.52,1.94A3.4,3.4,0,0,1,438.54,53.76Z" transform="translate(-127.81 0.59)"/><path d="M446.42,64.94a3.46,3.46,0,0,1-.74.38c-2.43.64-4.87,1.27-7.3,1.86-.26.06-.51-.19-.76-.3.26-.25.53-.67.79-.74,2.47-.68,4.93-1.31,7.4-1.9.25-.06.48.2.73.31Z" transform="translate(-127.81 0.59)"/></g></g></svg>