<?xml version="1.0" encoding="utf-8"?>
<!-- Generator: Adobe Illustrator 25.2.3, SVG Export Plug-In . SVG Version: 6.00 Build 0)  -->
<svg version="1.1" id="Layer_1" xmlns="http://www.w3.org/2000/svg" xmlns:xlink="http://www.w3.org/1999/xlink" x="0px" y="0px"
	 viewBox="0 0 850.8 191.4" style="enable-background:new 0 0 850.8 191.4;" xml:space="preserve">
<g id="mNTvkD">
	<path d="M706.1,148.4c-17.2-0.6-34.2-1.1-51.2-1.7c-15.5-0.6-31-1.5-46.5-1.6c-9.1-0.2-18.3,0.5-27.3,1.9
		c-8.3,1.4-16.2,1.7-24.1-1.4c-3.6-1.4-7.5-2.2-11.9-3.4l1.9-10.6c10.6-1.7,21.9-5.2,34.8-2.1c14.7,3.6,30.3,4.3,45.5,5.1
		c25.2,1.4,50.5,2.1,75.7,3.1c1.1,0,2.2,0,5.2,0c-0.5-2.4-0.9-4.8-1-7.3c0.2-6.9,4.9-10,10.5-6c9.9,7,19.6,5.4,29.9,2.2
		c3.7-1.1,7.6-1.7,11.6-1.6c25.1,0.8,50.1,1.8,75.2,2.9c9.6,0.4,13.2,4.3,12.9,13.7c-0.2,5.4-0.3,10.9-0.7,16.3
		c-0.5,6.7-4.7,10.8-11.4,10.6c-26.9-0.9-53.9-1.8-80.8-3.3c-4.9-0.3-9.6-2.8-14.4-4.3c-7.2-2.3-14-3-21.1,0.9
		c-9.1,5-13,2.4-12.7-8.1C706.2,152,706.1,150.5,706.1,148.4z M840.3,138.1c-2.5-0.5-5-0.9-7.5-1.2c-24.8-1-49.7-1.9-74.5-2.9
		c-1.3-0.2-2.6-0.2-3.9,0.2c-1.2,0.5-2.8,1.9-2.7,2.9c0.2,1.6,1,3,2.2,3.9c1.1,0.7,2.9,0.5,4.3,0.6c24.6,1,49.3,1.9,73.9,2.9
		c1.4,0,3.5,0.5,4.3-0.3C838,142.9,838.7,140.8,840.3,138.1z M839.8,152.8c-3.7-0.6-5.5-1-7.3-1.1c-25-1-50-2-75-3
		c-0.7,0-1.7-0.3-2.2,0c-1.5,1.1-3,2.2-4.4,3.4c1.2,1.4,2.4,2.7,3.8,3.9c0.8,0.5,2.2,0.2,3.3,0.3c24.4,1,48.9,1.9,73.3,2.8
		c1.4,0,3.5,0.6,4.3-0.2C837.2,157.7,838.1,155.6,839.8,152.8z"/>
</g>
<g id="XC9Vp1.tif">
	<path d="M412.7,20.1l2.2,3.6l4.2-1.5l-0.9-5.1l32.1-14.8l2.9,4.6c0.7,0.5,1.1,1,1.5,1c5.7,0.3,8.9,3.8,11.2,8.5
		c8.8,18.2,17.6,36.5,26.2,54.8c5.7,12.1,11,24.3,16.5,36.5c0.3,0.6,0.7,1.1,1.2,1.6c-0.2,4.5-0.5,9.1-4.4,12.2
		c-1.5,1.3-3.2,2.4-5,3.3c-10.7,5.1-21.4,10-32.1,15c-11.9,5.6-23.9,11.1-35.8,16.7c-7.7,3.6-15.3,7.2-23,10.8
		c-11.9,5.6-23.8,11.2-35.8,16.7c-3.2,1.6-6.5,3-9.8,4.3c-6,2-10.7,0.3-14.3-5.2c-1.9-3.3-3.7-6.6-5.3-10c-1.3-2.6-2.5-5.2-3.8-7.9
		l-5.4,0.8l-12.9-27.4l4.2-3.2l-4.7-9.9l-5.5,0.4l-15.6-33.2l4.4-2.2c-0.3-2-1.1-4-0.9-5.9c0.6-4.8,2.4-9.1,7.3-11.3
		c6.1-2.8,12-5.9,18-8.8c8.2-3.9,16.5-7.7,24.7-11.5l-1.7-5.1c6.4-2.3,11.9-6.5,18.9-8.2l2.4,4l5.9-2.8l-0.4-4.6
		c4.5-4.2,10.8-5.7,16.2-8.7C401.4,24.5,406.9,22.6,412.7,20.1z M356.4,182.9c2.9-0.4,6-0.1,8.5-1.3c15.8-7.3,31.5-15,47.2-22.4
		c13.4-6.3,26.9-12.2,40.2-18.5c16.6-7.8,33-15.9,50-24l1.7-6.2c-3.9-8.7-7.6-17.5-11.7-26.2c-9.8-20.7-19.8-41.3-29.4-62.2
		c-2.6-5.7-5.9-9.4-12.6-8.3l-2.4-3.6l-2.9,1.3l0,6.7l-3.6-0.1l-2.1-3.5l-3.9,1.7l0.2,6.1l-3.7,0l-1.8-3.4l-4.2,1.6l0.4,5.3
		l-7.9,4.4l8.3,18.3c-5.3,3.6-11.4,5.4-16.9,8.1c-5.5,2.7-11.1,5.4-16.7,8.2c-4.4-5.9-5.1-13.3-10-18.5l-5.7,3.2l8.6,19
		c-7.2,1.9-12.4,6.6-19.4,7.9l-8.9-18l-45.1,21l-2.2,5l1,2.7c9.3-4.4,18.4-8.6,27.6-12.7c1.1-0.5,2.5-0.2,3.6-0.2l15.2,32.9
		L326.7,122l5.3,11.5l26.3-12.3c5.1,9.2,9.6,18.7,13.5,28.5c-8.8,4.2-17.2,8.2-25.8,12.3C348.3,169.5,351.8,176.5,356.4,182.9
		L356.4,182.9z M350,105l-11-23.3L308.6,96l11.2,23.1L350,105z M329.8,140.8l8.7,18.4c8.7-3.6,17.1-7.8,25.3-12.3l-8.7-18.1
		L329.8,140.8z M395,56.7c7.7-3.4,15.4-6.5,22.9-10.9l-7.8-17.6c-8.1,3.7-15.7,7.2-23.5,10.8L395,56.7z M377.9,64.9l-7.6-17.3
		c-4.3-1.8-6.4,2.7-10.1,2.7c1.7,3.3,3.2,6.2,4.8,9.2s1.3,7.1,4.6,9.1L377.9,64.9z"/>
	<path d="M418.5,82.6l11,23.9l-3.3,9c-6.2,5.7-15.3,8.3-23.6,12.2c-4.2-5.4-13.3-25.3-14-30.9L418.5,82.6z M404.9,120.6
		c3.2-1.5,5.8-3.3,8.7-4c5.5-1.3,8.5-4.6,9.6-10.8l-7.1-15.4c-7.2,2.6-14.2,5.9-20.8,9.8L404.9,120.6z"/>
	<path d="M446,46.6l8.6,19.6c-6.9,3.1-13.1,5.9-19.6,8.9l-9.2-19.3C432,51.8,438.8,48.7,446,46.6z M441.2,64.5l-0.2,0
		c2.2,0.6,3.7-0.5,5.5-2.1l-2.8-3l0,0.2l-1.1-5.2l-3.9,2.4l-2.7,4.8c-1,2.7,1.7,3.4,2.2,5.8L441.2,64.5z"/>
	<path d="M463.4,66.8l-1.5-4.3l4.3-1.9l-1.4-4l-5.6,0.5l-1.7-4.2l4.1-1.9l-0.9-3.7l-5.4,0.8l-2.9-5.3c3-1.4,6-2.7,9.5-4.3l16.5,34.2
		l-9.6,3.7l-2.7-4.2l4.3-2.2l-1.4-4L463.4,66.8z"/>
	<path d="M469.1,97.2l-10.6,3.8l-10.8-23.2c3.5-1.7,6.6-3.3,9.9-5l2.7,4.6l-5.8,4.8l8.3,0.4l1.9,4.6l-3.8,2.3l0.1,4.1
		c2.4-0.7,4.3-1.3,6.2-1.8L469.1,97.2z"/>
	<path d="M397.5,157l-6.1,4.3l-5.9-5.5l2.7-5.9c3.7-1,6.1,0.2,9.2,2.3L397.5,157z"/>
	<path d="M349.5,69l5.4-0.6l4.6,5.1l-2.6,5.1l-5.4,0.9l-3.8-3.1L349.5,69z"/>
	<path d="M484.2,111.9c-0.5-3.1-0.9-5.8,2.9-8l4.5,1.7l0.4-2l3,5.5C492,115.3,490.3,115.7,484.2,111.9z"/>
	<path d="M456.8,28.9c-0.7,1.3-1.5,2.6-2.5,4.3l-3.8,0.7l-4.6-3.6l-0.1-5.2C452.1,21.3,454.1,22.1,456.8,28.9z"/>
	<path d="M476.2,93.1c-0.9-3-4.1-4.5-2.4-7.7l8.1-3.8l3.9,7L476.2,93.1z"/>
	<path d="M462.8,112.5l2.4,5.9l-3.3,1.7l-3.5-2.6l0.2-3.2L462.8,112.5z"/>
	<path d="M436.6,143.3l-2.4-6l3.3-1.4c2.8,1,4.2,2.4,3.2,5.7L436.6,143.3z"/>
	<path d="M472,108.4c2,2.7,2.7,5-0.4,7.3c-2.7-0.7-4.6-2.1-3.4-5.8L472,108.4z"/>
	<path d="M464.7,129.8l-2.2-5.8l4.5-2l2.5,6.2L464.7,129.8z"/>
	<path d="M447.9,120.2c2.4-1.5,3.6-2.3,5.3-3.4l2.6,6l-3.8,1.6L447.9,120.2z"/>
	<path d="M455.4,134.1l-2.1-5.1l3.8-2.5c1.2,1.7,3.6,2.8,2.7,6L455.4,134.1z"/>
	<path d="M444,121.7l2.2,5.3l-4.4,2.3l-3.1-5.5L444,121.7z"/>
	<path d="M443.7,133.1l3.3-1.3c2.3,0.7,4.1,1.8,3.3,4.9l-4.3,2.4L443.7,133.1z"/>
	<path d="M429.9,127.7l4.5-1.7l2.6,6l-4.7,1.7C431.5,131.8,430.7,129.8,429.9,127.7z"/>
	<path d="M427.9,140c2.7,1.1,4.5,2.4,3.3,5.9l-3.9,1.5C425.7,145,424.5,142.7,427.9,140z"/>
	<path d="M406.2,149.5l5.9,0.6c1.2,3.5,0.3,5.5-3.4,6.3c-0.6-0.8-1.2-1.7-1.7-2.6C406.7,152.3,406.4,150.9,406.2,149.5z"/>
	<path d="M476.3,117.8c2,4.2,2,4.2-0.7,7.2c-3.2-0.4-2.3-3.3-3.7-5.3L476.3,117.8z"/>
	<path d="M423.4,130.7c3.4,0.6,3.1,3.2,3.8,5.6L423,138C421.3,135.5,420.3,133.1,423.4,130.7z"/>
	<path d="M422.2,150.1l-4.7,1.6l-1.8-6l5.9-0.3L422.2,150.1z"/>
	<path d="M403.5,140.1l3.2-0.4l1.8,4.7l-3.9,2.9C402.9,144.7,401.4,142.8,403.5,140.1z"/>
	<path d="M413,142.3l-1.4-6.2l4.8-0.3l1.3,4.8L413,142.3z"/>
	<path d="M330.5,96.1l1.9,5.3l-3.7,4.6l-0.9-6.4l-4-2.4L330.5,96.1z"/>
	<path d="M350.7,145.5l-3.2,3.5l-4.7-8.7l4.9-0.1L350.7,145.5z"/>
	<path d="M392.6,40.6l4.2-1.6c3.1,1.1,2.7,3.4,3.1,5.8l-4,1.4L392.6,40.6z"/>
	<path d="M436.2,61.8l2.7-4.8l5,2.8l0-0.2l-2.8,5.1l0.2,0L436.2,61.8z"/>
</g>
<g id="A5QOqM">
	<path d="M110.1,77.1l1.7,33.2l-46.5,2.4l-1.7-33.2L110.1,77.1z"/>
	<path d="M63.4,78c-0.2-2.4-0.3-4.9-0.3-7.3c0.2-1,0.7-1.9,1.4-2.7c1.5-1.6,1.9-3.7,0-4.7c-2.3-1.2-2.1-3-2.2-4.8
		c-0.2-2.9-0.3-5.7-0.5-8.7l46.9-2.4c0.2,3.7,0.5,7.4,0.5,11c0,0.8-1.2,1.4-1.4,2.3c-0.4,1.4-1,3.9-0.6,4.1c3.6,1.9,2.4,5.3,2.9,8.1
		c0.1,0.9,0.1,1.8,0,2.7L63.4,78z M94.6,62.2c0-4.7-3.8-8.6-8.6-8.6c-4.7,0-8.6,3.8-8.6,8.6c0,0.4,0,0.9,0.1,1.3
		c0.7,4.7,5.1,7.9,9.8,7.2C91.5,70,94.6,66.4,94.6,62.2z"/>
	<path d="M69.6,113.6l9.1-0.5c-0.2,3.3,1.4,6.4-0.7,9.9c-1.2,2-0.8,5-0.8,7.6c0.2,7.1,0.7,14.1,1.1,21.4l-4.4,0.2
		c-0.3-6.6-0.4-13.1-1.1-19.5c-0.4-3.6-2-7.2-2.7-10.8C69.8,119.1,69.6,116.4,69.6,113.6z"/>
	<path d="M98.6,112.1l9.8-0.5c-0.5,4.8-1.1,9.2-1.6,13.7c-0.3,1.2-0.4,2.4-0.5,3.6c0.3,7.1,0.7,14.2,1.1,21.6l-4.3,0.4
		c-0.1-2-0.2-3.9-0.3-5.7c-0.2-4.6-0.2-9.2-0.8-13.7c-0.5-3.7-2.1-7.3-2.8-11.1C98.8,117.6,98.6,114.9,98.6,112.1z"/>
	<path d="M93.9,112.4c-0.6,4.8-1.1,9.3-1.7,13.7c-0.2,1.2-0.4,2.4-0.4,3.6c0.3,7.1,0.7,14.2,1.1,21.5l-4.4,0.2
		c-0.2-3.6-0.2-7.2-0.6-10.8c-0.5-5.7-1.1-11.5-1.9-17.2c-0.5-3.4-1.6-6.7-2.6-10.5L93.9,112.4z"/>
</g>
<g id="BGDdYY.tif">
	<path d="M210.7,70.1l-1.9,1.3l-13.7-20.3c-4.1,3.8-8.8,6.9-13.8,9.4L195,80.8l-2,1.3l-14-20.7c-1.9,0.8-3.9,1.3-5.9,1.4
		c-1.4,0.2-2.8-0.2-3.9-1.1c-1-0.8-1.4-2.1-1.2-3.3c0.6-2.4-0.9-4.8-3.2-5.3c-0.2,0-0.3-0.1-0.5-0.1c-0.9-0.1-1.7-0.7-2.1-1.4
		c-2.9-4.4-5.8-8.7-8.7-13c-1.4-2.2-3-4.4-4.6-6.6c-0.9-1.2-1.1-2.8-0.6-4.2c0.7-1.9,1.7-3.7,3.2-5.2c2.9-3.3,6.3-6.1,10-8.5
		c3.4-2.4,7.2-4.1,11.3-5.2c1.6-0.4,3.2-0.5,4.8-0.4c1.1,0.1,2.1,0.7,2.7,1.6c2.4,3.6,4.8,7.1,7.2,10.6c2.2,3.2,4.3,6.5,6.5,9.7
		c0.4,0.5,0.6,1.2,0.5,1.9c-0.7,2.4,0.6,4.9,3,5.6c0.2,0.1,0.4,0.1,0.6,0.1c1.1,0.2,2,0.9,2.4,1.9c0.5,0.9,0.6,2,0.3,3
		c-0.5,1.7-1.3,3.3-2.4,4.6c-0.3,0.5-0.7,0.9-1.1,1.3c-0.4,0.3-0.4,0.6-0.1,1c3.2,4.7,6.3,9.4,9.5,14.1c1.3,1.9,2.6,3.8,3.9,5.6
		C210.6,69.8,210.7,69.9,210.7,70.1z M180.3,14.5c-2.9,5.4-7.2,8.9-11.9,12.2l18.8,27.7c1.5-1.2,3.1-2.3,4.5-3.6
		c1.4-1.3,2.8-2.6,4.1-4c1.2-1.3,2.1-2.8,2.6-4.5c0.3-0.7-0.1-1.6-0.8-1.9c-0.1,0-0.2-0.1-0.3-0.1c-3.4-0.8-5.7-3.9-5.5-7.4
		c0.2-0.7,0.1-1.4-0.3-2c-1.4-1.9-2.7-3.8-4-5.7C185.2,21.7,182.8,18.1,180.3,14.5z M175.9,10.8c-2.1,0.2-4.1,0.8-6,1.6
		c-4.5,1.9-8.6,4.5-12.3,7.6c-2.8,2.1-5.1,4.8-6.7,7.9c-0.4,0.6-0.5,1.4-0.3,2.2c0.4,0.8,1.3,0.6,2,0.7c0,0,0.1,0,0.2,0
		c3.3-0.4,6.5-1.4,9.4-3.1c5-2.5,9.5-6,13.3-10.2c1.1-1.2,2.1-2.6,2.7-4.1C178.8,11.4,178.4,10.8,175.9,10.8z M166.5,28.2
		c-2.4,1.2-4.7,2.3-7,3.4c-0.5,0.2-0.5,0.4-0.2,0.8c0.7,1,1.3,1.9,2,2.9c2.2,3.3,4.4,6.5,6.6,9.8c3,4.5,6,9,9,13.5
		c0.4,0.7,0.8,0.9,1.6,0.5c0.6-0.3,1.2-0.5,1.8-0.7c1.6-0.8,3.2-1.7,4.9-2.5L166.5,28.2z M175.1,60l-18.5-27.4l-3.9,0.7l3.7,5.5
		c2.5,3.7,5.1,7.5,7.6,11.2c0.2,0.3,0.4,0.5,0.7,0.5c3.7,0.7,6.2,4.3,5.6,8.1c-0.2,0.7,0.2,1.4,0.9,1.6c0.1,0,0.1,0,0.2,0
		C172.7,60.5,173.9,60.4,175.1,60L175.1,60z"/>
	<path d="M171.1,37.5c-0.1,0.2-0.3,0.6-0.5,0.7c-1,0.7-2,1.4-3.1,2c-0.4,0.3-1,0.3-1.3-0.1c0,0-0.1-0.1-0.1-0.1
		c-1-1.4-2.1-2.9-3.1-4.4l-1.1-1.5c-0.4-0.5-0.4-1.2,0.1-1.6c0.1-0.1,0.1-0.1,0.2-0.1c1-0.7,1.9-1.3,2.9-2c0.5-0.4,1.2-0.4,1.6,0.1
		c0,0.1,0.1,0.1,0.1,0.2c1.4,2,2.8,4,4.1,6C171,36.9,171.1,37.2,171.1,37.5z M164.5,33.7l2.7,3.9l0.9-0.7l-2.7-3.9L164.5,33.7z"/>
	<path d="M178.8,58.4c-0.3-0.2-0.6-0.4-0.9-0.6c-1.3-1.9-2.6-3.9-4-5.8c-0.4-0.4-0.4-1.1,0-1.5c0,0,0.1-0.1,0.2-0.1
		c1-0.8,2.1-1.5,3.2-2.2c0.5-0.3,1.2,0,1.4,0.5c1.3,1.9,2.6,3.8,3.9,5.8c0.5,0.7,0.4,1.2-0.3,1.7c-0.9,0.7-1.9,1.3-2.9,2
		C179.3,58.1,179.1,58.3,178.8,58.4z M179.2,55.5c1-0.7,1-0.7,0.4-1.6l-1.4-2.1c-0.6-0.9-0.6-0.9-1.6-0.3L179.2,55.5z"/>
	<path d="M172,39c0.3,0.2,0.6,0.4,0.9,0.7c1.3,1.9,2.6,3.8,3.9,5.7c0.5,0.5,0.4,1.3-0.1,1.8c-0.1,0.1-0.2,0.2-0.4,0.2
		c-0.9,0.6-1.8,1.2-2.7,1.8c-0.5,0.4-1.2,0.3-1.6-0.2c0-0.1-0.1-0.1-0.1-0.2c-1.3-1.9-2.6-3.9-3.9-5.8c-0.4-0.5-0.3-1.3,0.2-1.7
		c0.1,0,0.1-0.1,0.2-0.1c0.9-0.6,1.8-1.2,2.7-1.8C171.3,39.3,171.6,39.1,172,39z M171.6,42c-1,0.4-1.1,0.5-0.5,1.4
		c0.6,0.9,1.2,1.8,1.8,2.7c0.3,0.4,0.5,0.4,0.8,0.1c0.4-0.2,0.4-0.4,0.1-0.8C173.1,44.3,172.3,43.1,171.6,42z"/>
</g>
<g id="gYvvhJ.tif">
	<path d="M188,163c0.4-0.4,0.7-0.9,1.1-1.3l12.4-12.2c0.1-0.1,0.3-0.2,0.4-0.3c-0.6-0.9-1.2-1.7-1.7-2.5c-0.8-1.2-1.4-2.5-1.7-3.9
		c-0.4-2.5,0.4-5,2.1-6.8c1.4-1.7,3.1-2.9,5.2-3.6c2.4-0.8,4.6-2.2,6.3-4.2c1.9-2.1,3.9-4,5.9-5.9c0.8-0.8,1.4-1.7,1.7-2.7
		c0.7-2.3,2-4.4,3.6-6.2c2.4-2.9,6.7-3.4,9.7-1.1c1.1,0.7,2.1,1.6,3.2,2.4l0.4-0.4c5-4.9,10-9.8,15-14.6c0.5-0.4,1-0.8,1.5-1.1h0.8
		c0,0,0.1,0.1,0.1,0.1c1.1,0.3,1.7,1.5,1.3,2.6c-0.1,0.4-0.3,0.7-0.7,1c-4.6,4.5-9.2,9-13.8,13.5l-1.8,1.8c0.6,0.8,1.2,1.6,1.8,2.3
		c3.3,4,2.3,8.1-1.2,11.1c-1.9,1.6-4.1,2.9-6.5,3.6c-0.5,0.2-0.9,0.4-1.3,0.8c-2.7,2.6-5.3,5.3-8,8c-1,0.9-1.7,2.1-2.1,3.4
		c-0.8,2.5-2.3,4.8-4.3,6.5c-2.4,2.3-6,2.8-8.9,1.1c-1.4-0.7-2.6-1.6-4-2.4l-0.5,0.5l-12.3,12.1c-1.4,1.4-2.7,1.3-3.8-0.5L188,163z
		 M221.2,140.4l-7.7-7.7c-0.1,0.1-0.2,0.1-0.3,0.2c-1.2,1.4-2.9,2.3-4.7,2.8c-2.1,0.7-3.9,2-5.2,3.7c-0.9,1.1-1.1,2.7-0.4,4
		c1.7,3.4,4.5,6.1,7.9,7.7c1.2,0.6,2.6,0.5,3.6-0.4c1.7-1.2,3-3,3.6-5c0.5-2,1.6-3.8,3.1-5.2C221.2,140.5,221.2,140.4,221.2,140.4z
		 M234.6,129.8l-10.3-10.4c-0.6,1.3-1.2,2.7-1.8,4.1c0,0.2,0.1,0.4,0.2,0.5c2.4,2.4,4.8,4.9,7.3,7.3c0.1,0.1,0.3,0.2,0.4,0.2
		C231.8,130.9,233.2,130.3,234.6,129.8z M238,127.1c1.1-0.9,1.3-2.6,0.4-3.7c-1.3-2-2.9-3.9-4.7-5.4c-1.1-1-2.3-1.8-3.5-2.6
		c-1.1-0.7-2.6-0.5-3.4,0.5L238,127.1z M227.2,134.4l-7.6-7.6l-2.9,3.3l7.5,7.5L227.2,134.4z"/>
</g>
<g id="_8SZYUi.tif">
	<path d="M588.1,103.6c1.8-9.7-1.5-19.7-8.7-26.5c44.5-8,87.7-21.8,128.6-40.9c-0.8,9.6,2.1,19.2,8.3,26.6
		C672.1,71,629,84.7,588.1,103.6z"/>
	<path d="M773.4,51.7c-3.6,10.6-15,19.5-28.9,19.7c-17.8,0.2-32.4-14.1-32.5-31.9c-0.1-10.1,4.6-19.7,12.6-25.9
		c10.5-8.2,25-8.9,36.2-1.6c-8.6,2.8-17.2,5.5-25.8,8.1c-2.2,0.4-3.8,2.3-3.8,4.5c-0.7,6-1.7,11.9-2.5,17.9c-0.1,1,0.2,2.1,0.9,2.9
		c4.3,4.7,8.8,9.2,13.1,13.9c1.4,1.6,2.7,1.5,4.5,0.9C755.9,57.3,764.6,54.6,773.4,51.7z"/>
	<path d="M540.9,87.5c4.1-10.8,18.8-16.1,29.7-11.1c11.7,5,17,18.6,12,30.2c-0.2,0.4-0.4,0.8-0.6,1.2c-5.4,11.3-19,16.2-30.3,10.8
		c-0.4-0.2-0.8-0.4-1.2-0.6c5.1-1.7,9.7-3.7,14.5-4.7c4.6-0.9,6.5-3.3,6.8-7.7c0.1-2.5,0.4-5,0.9-7.4c0.8-2.7-0.1-5.7-2.2-7.6
		c-2.5-2.5-5.1-5-7.4-7.7c-1.2-1.4-3.2-1.9-4.8-1.1C552.7,83.8,547,85.5,540.9,87.5z"/>
</g>
</svg>
